<svg xmlns="http://www.w3.org/2000/svg" width="42" height="42" viewBox="0 0 42 42">
  <path id="volume_off_FILL0_wght400_GRAD0_opsz48" d="M42.229,46.967l-5.9-5.908a21.857,21.857,0,0,1-2.227,1.37,16.656,16.656,0,0,1-2.388,1.047,1.621,1.621,0,0,1-1.556-.269,1.734,1.734,0,0,1-.7-1.45,1.338,1.338,0,0,1,.242-.779,1.116,1.116,0,0,1,.671-.457,19.127,19.127,0,0,0,1.905-.752,9.9,9.9,0,0,0,1.744-1.02l-8.856-8.916V38.7a1.471,1.471,0,0,1-.993,1.477,1.489,1.489,0,0,1-1.744-.349l-8-8H7.449a1.561,1.561,0,0,1-1.61-1.611V20.542a1.561,1.561,0,0,1,1.61-1.611h6.763L3.531,8.243a1.487,1.487,0,0,1-.456-1.155,1.677,1.677,0,0,1,.51-1.155,1.556,1.556,0,0,1,2.254,0L44.591,44.657a1.622,1.622,0,0,1,0,2.309,1.684,1.684,0,0,1-2.362,0Zm-10.52-39.8A19.176,19.176,0,0,1,44.483,25.322a19.468,19.468,0,0,1-.751,5.371,18.978,18.978,0,0,1-2.254,4.995L39.17,33.378a14.555,14.555,0,0,0,1.583-3.867,17.218,17.218,0,0,0,.51-4.189,16.242,16.242,0,0,0-2.979-9.56,14.364,14.364,0,0,0-7.917-5.693,1.116,1.116,0,0,1-.671-.457,1.338,1.338,0,0,1-.242-.779,1.731,1.731,0,0,1,2.254-1.665ZM19.74,24.463Zm14.545,4.028-4.831-4.834V16.675A8.914,8.914,0,0,1,33.4,20.22a9.815,9.815,0,0,1,1.422,5.156,9.314,9.314,0,0,1-.134,1.584A9.186,9.186,0,0,1,34.286,28.491Zm-9.124-9.13-5.582-5.586,2.845-2.847a1.489,1.489,0,0,1,1.744-.349,1.471,1.471,0,0,1,.993,1.477Zm-3.22,15.361V26.665l-4.508-4.512H9.06V28.6h6.763Z" transform="translate(-3.074 -5.45)" fill="#fff"/>
</svg>
