<svg xmlns="http://www.w3.org/2000/svg" width="42" height="42" viewBox="0 0 42 42">
  <path id="volume_up_FILL0_wght400_GRAD0_opsz48" d="M34.117,48.861a1.685,1.685,0,0,1-1.692-.309,2.041,2.041,0,0,1-.758-1.669,1.6,1.6,0,0,1,.263-.9,1.214,1.214,0,0,1,.729-.525,17.674,17.674,0,0,0,8.575-6.738A18.565,18.565,0,0,0,44.5,27.966a18.708,18.708,0,0,0-3.267-10.788,17.265,17.265,0,0,0-8.575-6.707,1.184,1.184,0,0,1-.729-.556,1.757,1.757,0,0,1-.263-.927,1.927,1.927,0,0,1,.788-1.638,1.693,1.693,0,0,1,1.662-.278,20.591,20.591,0,0,1,10.063,8.068A22.574,22.574,0,0,1,48,27.966a22.574,22.574,0,0,1-3.821,12.828A20.591,20.591,0,0,1,34.117,48.861ZM7.75,35.446A1.65,1.65,0,0,1,6.5,34.92,1.86,1.86,0,0,1,6,33.591V22.464a1.86,1.86,0,0,1,.5-1.329,1.65,1.65,0,0,1,1.254-.525h7.583L24.025,11.4a1.555,1.555,0,0,1,1.9-.4A1.7,1.7,0,0,1,27,12.7V43.359a1.7,1.7,0,0,1-1.079,1.7,1.555,1.555,0,0,1-1.9-.4l-8.692-9.211ZM30.5,38.413V17.58a9.619,9.619,0,0,1,5.075,3.956A11.5,11.5,0,0,1,37.5,28.027a11.307,11.307,0,0,1-1.925,6.491A9.708,9.708,0,0,1,30.5,38.413Zm-7-20.772-6.592,6.677H9.5v7.418h7.408L23.5,38.475ZM18.017,28.027Z" transform="translate(-6 -6.964)" fill="#fff"/>
</svg>
